PathFileType	4	(X/Y/Z)	regression/subject04/trials/walk2/markers.trc
DataRate	CameraRate	NumFrames	NumMarkers	Units	OrigDataRate	OrigDataStartFrame	OrigNumFrames
199.9999999999954	199.9999999999954	4	64	m	199.9999999999954	0	223
Frame#	Time	CLAV			C7			RACR			RASH			RPSH			RLEL			RMEL			RUA1			RUA2			RUA3			RFAsuperior			RFAradius			RFAulna			RASI			RPSI			RCAL			RTOE			RMT5			RTH1			RTH2			RTH3			RTB1			RTB2			RTB3			RLFC			RMFC			RLMAL			RMMAL			RHJC			RKJC			REJC			RAJC			RSJC			LACR			LASH			LPSH			LLEL			LMEL			LUA1			LUA2			LUA3			LFAsuperior			LFAradius			LFAulna			LASI			LPSI			LCAL			LTOE			LMT5			LTH1			LTH2			LTH3			LTB1			LTB2			LTB3			LLFC			LMFC			LLMAL			LMMAL			LHJC			LKJC			LEJC			LAJC			LSJC			
		X1	Y1	Z1	X2	Y2	Z2	X3	Y3	Z3	X4	Y4	Z4	X5	Y5	Z5	X6	Y6	Z6	X7	Y7	Z7	X8	Y8	Z8	X9	Y9	Z9	X10	Y10	Z10	X11	Y11	Z11	X12	Y12	Z12	X13	Y13	Z13	X14	Y14	Z14	X15	Y15	Z15	X16	Y16	Z16	X17	Y17	Z17	X18	Y18	Z18	X19	Y19	Z19	X20	Y20	Z20	X21	Y21	Z21	X22	Y22	Z22	X23	Y23	Z23	X24	Y24	Z24	X25	Y25	Z25	X26	Y26	Z26	X27	Y27	Z27	X28	Y28	Z28	X29	Y29	Z29	X30	Y30	Z30	X31	Y31	Z31	X32	Y32	Z32	X33	Y33	Z33	X34	Y34	Z34	X35	Y35	Z35	X36	Y36	Z36	X37	Y37	Z37	X38	Y38	Z38	X39	Y39	Z39	X40	Y40	Z40	X41	Y41	Z41	X42	Y42	Z42	X43	Y43	Z43	X44	Y44	Z44	X45	Y45	Z45	X46	Y46	Z46	X47	Y47	Z47	X48	Y48	Z48	X49	Y49	Z49	X50	Y50	Z50	X51	Y51	Z51	X52	Y52	Z52	X53	Y53	Z53	X54	Y54	Z54	X55	Y55	Z55	X56	Y56	Z56	X57	Y57	Z57	X58	Y58	Z58	X59	Y59	Z59	X60	Y60	Z60	X61	Y61	Z61	X62	Y62	Z62	X63	Y63	Z63	X64	Y64	Z64	

1	1.41	1.23731545092982	1.432890386230107	-0.4777250290232977	1.12713228700266	1.517927593336981	-0.4849708732497747	1.195737093982208	1.4880223285579	-0.3305289718200604	1.232081962148206	1.421694871525004	-0.2820737237796096	1.133291577174878	1.445690225660926	-0.2886478257504879	1.038197045672685	1.175826633704323	-0.2179464282165441	1.034516170288766	1.162709472897674	-0.3099351418811928	1.154476763739795	1.39116007561947	-0.2606387508779714	1.070013030076945	1.254685830746298	-0.249057800967394	1.142236648911538	1.298795954653443	-0.2459011006613203	1.060577189945572	1.075386025720198	-0.260207757135264	1.097205026238757	0.9023235359194406	-0.2377379097763788	1.034267761865255	0.8935762640184675	-0.2335607711061508	1.214453089357714	0.9783259542497945	-0.3611412190085505	1.044809545646785	1.024743776746899	-0.4385860328599321	1.383570954275784	0.0466034535977525	-0.3773736585813889	1.62135797282364	0.1580391936546175	-0.3889145478398022	1.568360756256189	0.09651800152052778	-0.2968849456905404	1.206866435050336	0.7589357833661958	-0.3277015417397151	1.312958468760226	0.7083689816205917	-0.3903717811623035	1.261702100566775	0.6080040772829901	-0.3257031073057787	1.35710922325324	0.3369090453627871	-0.3327617251919739	1.431475125859074	0.2748305684809734	-0.3860928746722622	1.425899322275508	0.1978789444033484	-0.3189890895315135	1.295413224804814	0.5010693963152013	-0.3331608720104672	1.303147381180519	0.4985640912128665	-0.4517557452122222	1.445207927820625	0.09347124413329544	-0.3180351117648756	1.462503920464098	0.0956148967114886	-0.417781214326109	1.128873753861858	0.8958587512382779	-0.4119377085054355	1.299844183301158	0.4993969941376076	-0.3941731155094131	1.040501522958769	1.162115757927831	-0.2692092486808752	1.447273639993284	0.07829677875197349	-0.3761531725793896	1.18580360630745	1.432935495169977	-0.2851533618478675	1.215705596001369	1.488464835719707	-0.6289846231698381	1.258194618634801	1.422273534736598	-0.6723618832370113	1.151501002863607	1.448188517203393	-0.6794619133655599	1.193783436286339	1.150625563601098	-0.7852353228638544	1.155732994836421	1.129210283844748	-0.7031312442823514	1.208470260892909	1.386500496942318	-0.7086885302513025	1.183434293674105	1.232447251593167	-0.7478581378778263	1.232722420957143	1.296344011123465	-0.7221714966814953	1.247611318311085	1.080509955846129	-0.7179884743771748	1.383923273621265	0.9705869051719863	-0.6843270487107778	1.347406550185059	0.9242876847312866	-0.7083681301354376	1.202298367636204	0.9841413571113981	-0.6259611912943689	1.040551835490882	1.026780869852922	-0.5313505330534636	0.7295485652359748	0.1015683447466465	-0.5801156098242288	0.9807614974820801	0.03697907715684599	-0.5375236896831791	0.908274510609917	0.009921571380655813	-0.6327945552854954	1.094733185508591	0.7404409458423888	-0.6483568075858321	1.140885559906009	0.636542383612281	-0.5789656909442826	1.038766028155591	0.589963344914909	-0.6444207218475236	0.9224942920616404	0.3268726931267507	-0.6259734167836684	0.9274626353041056	0.2340893438050036	-0.5660167497540645	0.8715410501263987	0.1798504556034076	-0.63224725127617	0.9949381721452961	0.4871184469143526	-0.6330571775825595	0.9956933537749599	0.4861905515668826	-0.5141899979694706	0.8103068913099388	0.09312803771906808	-0.6301735522401604	0.819369023604217	0.08896593220157728	-0.529408547302943	1.121563738603078	0.8993562137576411	-0.5712040481710409	0.9961082640594419	0.4852432682113579	-0.5716344691258354	1.178260866164754	1.133921947623626	-0.737264347032876	0.7982483018484028	0.08494720687554036	-0.5718648480345575	1.211916262794046	1.43351415838157	-0.6754415213052692	
2	1.415	1.243932426956091	1.432603797396506	-0.4765692691465565	1.1336630043751	1.51754584825292	-0.4836163184618605	1.20237494147661	1.487447306103289	-0.3292596121622683	1.238808765530909	1.421073736014783	-0.2809344870242761	1.13999179059377	1.444984002186436	-0.2874183620912074	1.044970779303062	1.175012918831701	-0.2172204881582265	1.041132117914861	1.162148498865874	-0.3092384405946165	1.161223682469817	1.390438545041131	-0.2595189577829537	1.076750875830668	1.253950477841162	-0.2481693908606411	1.148988990832963	1.298036928385738	-0.2450136778213357	1.067256400244258	1.074682283109829	-0.2597549407717235	1.103815389185398	0.9015406204293755	-0.2377885396158954	1.040874712843125	0.8928064570581001	-0.2336354501897992	1.22186453449565	0.9778734990528901	-0.3609596613231904	1.051945748604267	1.024453470473542	-0.4377005097958202	1.386761306318676	0.0454763615771923	-0.3782603487750538	1.625546635339427	0.1546410110428399	-0.3908471842895462	1.572361538222228	0.09364509236395434	-0.2985766415014968	1.214251205013783	0.7585337378266869	-0.3274089635005027	1.320157867169711	0.7080226328651303	-0.3904366332283051	1.269127461826997	0.6076137150490668	-0.3256576734110507	1.363273074704863	0.3359890275134597	-0.3332997005100778	1.436755807074405	0.2732423904304546	-0.3870712900859407	1.430832803149142	0.1963138496178707	-0.3199707860121982	1.302839555932852	0.5006905437110533	-0.3332743844785354	1.310202514393457	0.498246073301945	-0.4518941513193381	1.449167077816091	0.09172937331569903	-0.3191696078829606	1.465926723905202	0.09375925613452679	-0.419009606995364	1.135963485069603	0.8954806268826035	-0.4113319742013667	1.307192301076771	0.4990361433966504	-0.3943206968140641	1.047185973735121	1.161442016540518	-0.2685244745209844	1.450766839602393	0.07656440833079931	-0.3773048395283459	1.192517953621606	1.432274500202894	-0.2839718582993801	1.222192071228522	1.488411838193096	-0.6277241222038162	1.264723473668023	1.422335047209146	-0.6712342309247619	1.158001140735913	1.448158134674531	-0.6782368159970477	1.200508706267506	1.150683691677737	-0.7841935995636261	1.162601824652131	1.12917493644049	-0.7020475601238816	1.215000190595764	1.386535789289216	-0.7075392886003969	1.190107116458525	1.232471711256139	-0.7467573321341903	1.239349235988007	1.296417917277416	-0.7211055231293788	1.254254087263208	1.080187180683652	-0.7172604390519522	1.390222830791833	0.9696391805636559	-0.6842641019733404	1.353487296638554	0.9235625139240856	-0.7083992179220822	1.208572041281218	0.9835331125519288	-0.6257283382682126	1.047289485412638	1.026435991704834	-0.5304470416064909	0.7309177088203107	0.1044370350573208	-0.5804264398228743	0.9811823456851975	0.03640385098649009	-0.5376142934524163	0.9083639485637742	0.01020662587814004	-0.6328728686807781	1.100525711225983	0.7402178756159137	-0.6480160257612523	1.146588933007711	0.6360400851639101	-0.57898525334496	1.044178836831484	0.5898769254496091	-0.6442807475831385	0.9261423315511618	0.3275114389679267	-0.6260498028971311	0.9301757509618893	0.2346137909693399	-0.5662000343810966	0.873616951393449	0.1810484308599557	-0.6324375947357123	1.000114081522703	0.4871198047540519	-0.6330399455031378	1.001176348149836	0.4859151764029456	-0.5141775959622147	0.8114626044683111	0.09498221865380807	-0.6304017970656685	0.8205733715172666	0.09061168114444845	-0.5296500034850372	1.127969198532153	0.8988843955565956	-0.5705674641500871	1.001492904569534	0.4850268827625496	-0.5716057649272213	1.185075392990579	1.133934100091907	-0.7362098573681402	0.7993715397313255	0.08686576833994031	-0.5720908208514315	1.218432661758721	1.433535811397256	-0.6742716021998658	
3	1.42	1.250560950937384	1.432374709687268	-0.4753892847900802	1.140194179509427	1.517206318413294	-0.4822400066217407	1.209010962636283	1.486919874677192	-0.3279667846895961	1.245540733177915	1.420504149393216	-0.2797721858190264	1.146694319097187	1.444315841196557	-0.2861695100138767	1.051900264120422	1.174187913735864	-0.2163585217549489	1.047796899884086	1.161597279634298	-0.3084029160859487	1.168015504121205	1.389747686298098	-0.2583505918098585	1.083585365384554	1.253219786420497	-0.2471637939336069	1.155829202522576	1.297302321185935	-0.2440853154588667	1.074084293804053	1.073987894114303	-0.2592095844886221	1.110667810193715	0.9007782110717151	-0.2378280542173142	1.047731140468956	0.8920289468511519	-0.2336461312678246	1.229302277491074	0.9774692385022725	-0.3607367299022096	1.059133218769403	1.024186046839628	-0.4368371677012199	1.388768379789037	0.04451498967387157	-0.3790007757165405	1.629196427371329	0.1498205051337225	-0.3931034288810032	1.575626627234675	0.08966988223496385	-0.300501113599696	1.22177811280507	0.7582250722103134	-0.3271006070925601	1.327520184862784	0.7078135246886172	-0.390483333747171	1.276773048340488	0.6073458234609574	-0.3255731201729006	1.369298699065524	0.3350470959452851	-0.3338046521868206	1.441643203306556	0.2714089803875495	-0.3880697350819456	1.435202013184184	0.1945385438620452	-0.3209503856200485	1.310540869661671	0.5004504474411822	-0.3333317910821043	1.317525533693425	0.4980489324078532	-0.4519753112260557	1.452239312399958	0.08973396548421325	-0.3202938920294778	1.468371205406319	0.09158729452116909	-0.4202406717853421	1.143119035868324	0.8951395020216282	-0.4107288186371754	1.314852677310115	0.4987983383063729	-0.3944193244922353	1.05396830500065	1.160770029608176	-0.2677088779809028	1.45327109158999	0.07456889504520126	-0.3784419498604285	1.199236130501798	1.431658736418491	-0.282769012338104	1.228688698684799	1.488417226147607	-0.6264383199332044	1.271273157241359	1.42246222439299	-0.6700811165222065	1.164519030034173	1.448178851540598	-0.6769902266526449	1.207118333205959	1.150817118200032	-0.7831467325677104	1.169369949291826	1.129222241315141	-0.7009503164323854	1.22152300346577	1.386634460776751	-0.7063692302002937	1.196704995042057	1.232572142091874	-0.7456417223305666	1.245931714202691	1.296547471784779	-0.7200330086405984	1.260763428895252	1.07990926955578	-0.7165445687125684	1.396349273642063	0.9686837496594869	-0.6842571061925424	1.359379052506697	0.9228511453618611	-0.708498344455045	1.214980056563036	0.9830029013200157	-0.6254543652337828	1.054116249488035	1.026124448468087	-0.5295658200078646	0.7324198771411541	0.1075090841620396	-0.5806935000536293	0.981628314557728	0.03581382374190835	-0.5376966765610297	0.908458647899764	0.01056838912074862	-0.6329430813708676	1.106481826711322	0.7400478402809972	-0.6476791563641131	1.152478573977626	0.6356002150957786	-0.5790127686707732	1.049787976427529	0.5898325039275478	-0.644145897496784	0.9299687996912542	0.3282166230632051	-0.6261180533398877	0.9330303121722965	0.2352194279477608	-0.5663653537421	0.8758254781139477	0.182348395925456	-0.6326059828699666	1.005508916185718	0.487154098064338	-0.6330286164012194	1.0068804756667	0.4856692734188816	-0.5141726035175526	0.8127274219781839	0.09697090799341418	-0.6306009732292301	0.8218786599408223	0.09239787013054446	-0.5298618360852627	1.134505457053246	0.8984675222397348	-0.5699336114640946	1.007100389510146	0.4848360775337042	-0.5715832801043047	1.191781427756383	1.134023381040102	-0.7351475115791082	0.8005992185614338	0.08892911232454109	-0.5722873662105352	1.224968554565242	1.433616811418265	-0.6730779430412841	
4	1.425	1.257203443121021	1.432187676950006	-0.4741850617247608	1.146732066205107	1.51689882173527	-0.4808375270995864	1.215657231519183	1.486427915695048	-0.3266490359890342	1.252288986563522	1.419972686368152	-0.2785864821805115	1.153411172234564	1.443677056789542	-0.2848965262741385	1.058943849131315	1.173357737874438	-0.2154090373456275	1.054541607172352	1.161037919587371	-0.307476265695375	1.174844400042713	1.38908264777917	-0.2571454003885161	1.090499517592916	1.252491804588448	-0.2460845423847256	1.16273762758969	1.296591103751484	-0.2431136531384578	1.081054149573448	1.073298657402901	-0.258586368220026	1.117757259571138	0.9000411372787035	-0.2378058185449101	1.05483105519061	0.8912458024578552	-0.2335634857374635	1.236813514424807	0.9771178827519702	-0.3605087545439736	1.066381289672576	1.023912531197236	-0.4359697577412469	1.38981913186106	0.04353500232053044	-0.3795993944951688	1.632096259597377	0.1442506064809557	-0.395472104762035	1.5780714622762	0.08512665080311388	-0.3024737775907431	1.229465595158183	0.7579837209243068	-0.3267880035783805	1.335046638934518	0.7076829247349131	-0.3905261637540306	1.284617443179747	0.6071599234160383	-0.3254539799670036	1.375176991792768	0.3340676625716152	-0.3342539196514847	1.446153873257514	0.2693524748702132	-0.3890486552156491	1.439047479676647	0.1925802842087059	-0.3218840073321876	1.318467003289186	0.5002991605507348	-0.3333323545270651	1.325058662899697	0.4979123028446171	-0.4519986539220909	1.454507473897627	0.08753074064544125	-0.3213528075633642	1.469931559846946	0.08915198530773816	-0.4214152916541969	1.150390228414097	0.894824103790569	-0.4101443784548851	1.322762027843053	0.4986277875018112	-0.3944669912854034	1.060847370652819	1.160092538789991	-0.2668054048354208	1.454883794916195	0.07235840209556038	-0.3795069053093318	1.205969674441122	1.431076998692052	-0.2815424223361711	1.23519346511951	1.488465221463131	-0.6251266694392116	1.27783636896395	1.422636855449491	-0.6689033874615127	1.171048329488675	1.448237575504591	-0.6757182350826298	1.213631243168685	1.151008904598521	-0.7820954394135821	1.176044257013048	1.129334142166645	-0.6998461040572908	1.228038423914937	1.386780328927723	-0.7051775151842958	1.203238516364978	1.232731390175161	-0.7445138758894425	1.252474489035581	1.296717176965436	-0.7189491151923474	1.267151942497848	1.079661100376404	-0.7158391373931962	1.402307627373586	0.9677020791396528	-0.6842917727272193	1.365082964783327	0.9221340961547118	-0.7086422536613921	1.221478488500251	0.9825793944872099	-0.6251711484753572	1.061009542205543	1.025825658828991	-0.5286790593892748	0.7340614906590941	0.110787145705311	-0.5809241835864829	0.9820949465560422	0.03521792209726631	-0.5377677278021079	0.9085613011344077	0.01101414525410755	-0.6330042223553003	1.112601052902456	0.7399313819090332	-0.647356780408632	1.15855172100558	0.6352253996037465	-0.5790539742062089	1.055593744679743	0.5898301070199158	-0.6440254233477891	0.9339755089517305	0.3289892499972201	-0.6261850411171515	0.936026812264679	0.2359101912809258	-0.5665166470509291	0.878170656767799	0.1837523398395934	-0.6327569959188748	1.011123108435931	0.4872212055269438	-0.6330317891924241	1.012800880946874	0.4854560450442058	-0.5141835373495312	0.8141068212972365	0.09909657250706383	-0.6307755218467003	0.8232866831568953	0.09433020865123631	-0.5300479511627678	1.14116753487403	0.8981087313645556	-0.5693159483510326	1.012928225026329	0.4846724363897362	-0.5715755981828011	1.198390996162906	1.134172409501394	-0.7340804126393943	0.8019349355688048	0.09114149017320677	-0.5724591225913938	1.231517056841549	1.433741167773391	-0.6718593276171723	
